# xmcd
#
# Track frame offsets: 
#        150
#        9735
#        18821
#        30424
#        37946
#        48375
#        61129
#        72530
#        83431
#        96267
#
# Disc length: 1359 seconds
#
# Revision: 0
# Processed by: cddbd v1.5.2PL0 Copyright (c) Steve Scherf et al.
# Submitted via: ExactAudioCopy v0.99pb5
#
DISCID=6e054d0a
DTITLE=George Jones - The Essential George Jones [CD3]
DYEAR=1900
DGENRE=Country
TTITLE0=Sweet Dreams
TTITLE1=Jonesy
TTITLE2=Your Tender Years
TTITLE3=Ragged, But Right
TTITLE4=Back In My Baby's Arms Again
TTITLE5=Blue Side Of Lonesome
TTITLE6=World Of Forgotten People
TTITLE7=Don't you Ever Get Tired (Of Hurting Me?)
TTITLE8=Brothers Of A Bottle
TTITLE9=Liberty
EXTD=
EXTT0=
EXTT1=
EXTT2=
EXTT3=
EXTT4=
EXTT5=
EXTT6=
EXTT7=
EXTT8=
EXTT9=
PLAYORDER=
